<?xml version="1.0" encoding="UTF-8" standalone="no"?>
<!DOCTYPE svg PUBLIC "-//W3C//DTD SVG 1.1//EN"
 "http://www.w3.org/Graphics/SVG/1.1/DTD/svg11.dtd">
<!-- Generated by graphviz version 2.40.1 (20161225.0304)
 -->
<!-- Title: dependencies Pages: 1 -->
<svg width="1310pt" height="298pt"
 viewBox="0.00 0.00 1310.00 298.00" xmlns="http://www.w3.org/2000/svg" xmlns:xlink="http://www.w3.org/1999/xlink">
<g id="graph0" class="graph" transform="scale(1 1) rotate(0) translate(4 294)">
<title>dependencies</title>
<polygon fill="#ffffff" stroke="transparent" points="-4,4 -4,-294 1306,-294 1306,4 -4,4"/>
<text text-anchor="start" x="630.0091" y="-42.4" font-family="sans-serif" font-weight="bold" font-size="14.00" fill="#000000">Legend</text>
<polygon fill="#ffffb3" stroke="transparent" points="417,-10 417,-30 437,-30 437,-10 417,-10"/>
<text text-anchor="start" x="440.629" y="-15.4" font-family="sans-serif" font-size="14.00" fill="#000000"> &#160;Declarations</text>
<polygon fill="#8dd3c7" stroke="transparent" points="530,-10 530,-30 550,-30 550,-10 530,-10"/>
<text text-anchor="start" x="553.7251" y="-15.4" font-family="sans-serif" font-size="14.00" fill="#000000"> &#160;Module</text>
<polygon fill="#80b1d3" stroke="transparent" points="616,-10 616,-30 636,-30 636,-10 616,-10"/>
<text text-anchor="start" x="639.7812" y="-15.4" font-family="sans-serif" font-size="14.00" fill="#000000"> &#160;Bootstrap</text>
<polygon fill="#fdb462" stroke="transparent" points="713,-10 713,-30 733,-30 733,-10 713,-10"/>
<text text-anchor="start" x="736.6732" y="-15.4" font-family="sans-serif" font-size="14.00" fill="#000000"> &#160;Providers</text>
<polygon fill="#fb8072" stroke="transparent" points="809,-10 809,-30 829,-30 829,-10 809,-10"/>
<text text-anchor="start" x="832.7258" y="-15.4" font-family="sans-serif" font-size="14.00" fill="#000000"> &#160;Exports</text>
<g id="clust1" class="cluster">
<title>cluster_AppModule</title>
<polygon fill="none" stroke="#000000" stroke-dasharray="1,5" points="358,-146 358,-274 1012,-274 1012,-146 358,-146"/>
</g>
<g id="clust3" class="cluster">
<title>cluster_AppModule_imports</title>
<polygon fill="none" stroke="#000000" points="366,-154 366,-206 1004,-206 1004,-154 366,-154"/>
</g>
<g id="clust7" class="cluster">
<title>cluster_AuthModule</title>
<polygon fill="none" stroke="#000000" stroke-dasharray="1,5" points="8,-70 8,-138 552,-138 552,-70 8,-70"/>
</g>
<g id="clust10" class="cluster">
<title>cluster_AuthModule_exports</title>
<polygon fill="none" stroke="#000000" points="438,-78 438,-130 544,-130 544,-78 438,-78"/>
</g>
<g id="clust12" class="cluster">
<title>cluster_AuthModule_providers</title>
<polygon fill="none" stroke="#000000" points="16,-78 16,-130 430,-130 430,-78 16,-78"/>
</g>
<g id="clust19" class="cluster">
<title>cluster_EmployeeModule</title>
<polygon fill="none" stroke="#000000" stroke-dasharray="1,5" points="560,-70 560,-138 750,-138 750,-70 560,-70"/>
</g>
<g id="clust24" class="cluster">
<title>cluster_EmployeeModule_providers</title>
<polygon fill="none" stroke="#000000" points="568,-78 568,-130 742,-130 742,-78 568,-78"/>
</g>
<g id="clust25" class="cluster">
<title>cluster_EmployeeRoleModule</title>
<polygon fill="none" stroke="#000000" stroke-dasharray="1,5" points="758,-70 758,-138 984,-138 984,-70 758,-70"/>
</g>
<g id="clust30" class="cluster">
<title>cluster_EmployeeRoleModule_providers</title>
<polygon fill="none" stroke="#000000" points="766,-78 766,-130 976,-130 976,-78 766,-78"/>
</g>
<g id="clust31" class="cluster">
<title>cluster_UsersModule</title>
<polygon fill="none" stroke="#000000" stroke-dasharray="1,5" points="1020,-214 1020,-282 1294,-282 1294,-214 1020,-214"/>
</g>
<g id="clust34" class="cluster">
<title>cluster_UsersModule_exports</title>
<polygon fill="none" stroke="#000000" points="1176,-222 1176,-274 1286,-274 1286,-222 1176,-222"/>
</g>
<g id="clust36" class="cluster">
<title>cluster_UsersModule_providers</title>
<polygon fill="none" stroke="#000000" points="1028,-222 1028,-274 1168,-274 1168,-222 1028,-222"/>
</g>
<!-- AuthModule -->
<g id="node1" class="node">
<title>AuthModule</title>
<polygon fill="#8dd3c7" stroke="#000000" points="461.5482,-198 458.5482,-202 437.5482,-202 434.5482,-198 374.4518,-198 374.4518,-162 461.5482,-162 461.5482,-198"/>
<text text-anchor="middle" x="418" y="-175.8" font-family="Times,serif" font-size="14.00" fill="#000000">AuthModule</text>
</g>
<!-- AppModule -->
<g id="node6" class="node">
<title>AppModule</title>
<polygon fill="#8dd3c7" stroke="#000000" points="711.6571,-266 708.6571,-270 687.6571,-270 684.6571,-266 628.3429,-266 628.3429,-230 711.6571,-230 711.6571,-266"/>
<text text-anchor="middle" x="670" y="-243.8" font-family="Times,serif" font-size="14.00" fill="#000000">AppModule</text>
</g>
<!-- AuthModule&#45;&gt;AppModule -->
<g id="edge1" class="edge">
<title>AuthModule&#45;&gt;AppModule</title>
<path fill="none" stroke="#000000" d="M418,-198.2921C418,-220.2057 418,-254 418,-254 418,-254 618.1044,-254 618.1044,-254"/>
<polygon fill="#000000" stroke="#000000" points="618.1045,-257.5001 628.1044,-254 618.1044,-250.5001 618.1045,-257.5001"/>
</g>
<!-- AuthService  -->
<g id="node7" class="node">
<title>AuthService </title>
<polygon fill="#fb8072" stroke="#000000" points="535.9761,-122 446.0239,-122 446.0239,-86 535.9761,-86 535.9761,-122"/>
<text text-anchor="middle" x="491" y="-99.8" font-family="Times,serif" font-size="14.00" fill="#000000">AuthService </text>
</g>
<!-- AuthModule&#45;&gt;AuthService  -->
<g id="edge6" class="edge">
<title>AuthModule&#45;&gt;AuthService </title>
<path fill="none" stroke="#000000" stroke-dasharray="5,2" d="M454.0181,-161.9891C454.0181,-161.9891 454.0181,-132.145 454.0181,-132.145"/>
<polygon fill="#000000" stroke="#000000" points="457.5181,-132.145 454.0181,-122.145 450.5181,-132.1451 457.5181,-132.145"/>
</g>
<!-- DatabaseModule -->
<g id="node2" class="node">
<title>DatabaseModule</title>
<polygon fill="#8dd3c7" stroke="#000000" points="725.3501,-198 722.3501,-202 701.3501,-202 698.3501,-198 614.6499,-198 614.6499,-162 725.3501,-162 725.3501,-198"/>
<text text-anchor="middle" x="670" y="-175.8" font-family="Times,serif" font-size="14.00" fill="#000000">DatabaseModule</text>
</g>
<!-- DatabaseModule&#45;&gt;AppModule -->
<g id="edge2" class="edge">
<title>DatabaseModule&#45;&gt;AppModule</title>
<path fill="none" stroke="#000000" d="M670,-198.2228C670,-198.2228 670,-219.7269 670,-219.7269"/>
<polygon fill="#000000" stroke="#000000" points="666.5001,-219.7269 670,-229.7269 673.5001,-219.727 666.5001,-219.7269"/>
</g>
<!-- EmployeeModule -->
<g id="node3" class="node">
<title>EmployeeModule</title>
<polygon fill="#8dd3c7" stroke="#000000" points="596.3132,-198 593.3132,-202 572.3132,-202 569.3132,-198 479.6868,-198 479.6868,-162 596.3132,-162 596.3132,-198"/>
<text text-anchor="middle" x="538" y="-175.8" font-family="Times,serif" font-size="14.00" fill="#000000">EmployeeModule</text>
</g>
<!-- EmployeeModule&#45;&gt;AppModule -->
<g id="edge3" class="edge">
<title>EmployeeModule&#45;&gt;AppModule</title>
<path fill="none" stroke="#000000" d="M538,-198.2667C538,-216.5552 538,-242 538,-242 538,-242 618.2344,-242 618.2344,-242"/>
<polygon fill="#000000" stroke="#000000" points="618.2344,-245.5001 628.2344,-242 618.2343,-238.5001 618.2344,-245.5001"/>
</g>
<!-- EmployeeRoleModule -->
<g id="node4" class="node">
<title>EmployeeRoleModule</title>
<polygon fill="#8dd3c7" stroke="#000000" points="886.2548,-198 883.2548,-202 862.2548,-202 859.2548,-198 743.7452,-198 743.7452,-162 886.2548,-162 886.2548,-198"/>
<text text-anchor="middle" x="815" y="-175.8" font-family="Times,serif" font-size="14.00" fill="#000000">EmployeeRoleModule</text>
</g>
<!-- EmployeeRoleModule&#45;&gt;AppModule -->
<g id="edge4" class="edge">
<title>EmployeeRoleModule&#45;&gt;AppModule</title>
<path fill="none" stroke="#000000" d="M815,-198.2228C815,-218.3652 815,-248 815,-248 815,-248 721.94,-248 721.94,-248"/>
<polygon fill="#000000" stroke="#000000" points="721.94,-244.5001 711.94,-248 721.94,-251.5001 721.94,-244.5001"/>
</g>
<!-- UsersModule -->
<g id="node5" class="node">
<title>UsersModule</title>
<polygon fill="#8dd3c7" stroke="#000000" points="995.9218,-198 992.9218,-202 971.9218,-202 968.9218,-198 904.0782,-198 904.0782,-162 995.9218,-162 995.9218,-198"/>
<text text-anchor="middle" x="950" y="-175.8" font-family="Times,serif" font-size="14.00" fill="#000000">UsersModule</text>
</g>
<!-- UsersModule&#45;&gt;AppModule -->
<g id="edge5" class="edge">
<title>UsersModule&#45;&gt;AppModule</title>
<path fill="none" stroke="#000000" d="M934.7632,-198.2479C934.7632,-221.0179 934.7632,-257 934.7632,-257 934.7632,-257 721.6605,-257 721.6605,-257"/>
<polygon fill="#000000" stroke="#000000" points="721.6605,-253.5001 711.6605,-257 721.6605,-260.5001 721.6605,-253.5001"/>
</g>
<!-- UsersService  -->
<g id="node13" class="node">
<title>UsersService </title>
<polygon fill="#fb8072" stroke="#000000" points="1277.8493,-266 1184.1507,-266 1184.1507,-230 1277.8493,-230 1277.8493,-266"/>
<text text-anchor="middle" x="1231" y="-243.8" font-family="Times,serif" font-size="14.00" fill="#000000">UsersService </text>
</g>
<!-- UsersModule&#45;&gt;UsersService  -->
<g id="edge12" class="edge">
<title>UsersModule&#45;&gt;UsersService </title>
<path fill="none" stroke="#000000" stroke-dasharray="5,2" d="M995.7729,-180C1075.3976,-180 1231,-180 1231,-180 1231,-180 1231,-219.7772 1231,-219.7772"/>
<polygon fill="#000000" stroke="#000000" points="1227.5001,-219.7772 1231,-229.7772 1234.5001,-219.7773 1227.5001,-219.7772"/>
</g>
<!-- AuthService -->
<g id="node8" class="node">
<title>AuthService</title>
<ellipse fill="#fdb462" stroke="#000000" cx="363" cy="-104" rx="59.1083" ry="18"/>
<text text-anchor="middle" x="363" y="-99.8" font-family="Times,serif" font-size="14.00" fill="#000000">AuthService</text>
</g>
<!-- AuthService&#45;&gt;AuthModule -->
<g id="edge7" class="edge">
<title>AuthService&#45;&gt;AuthModule</title>
<path fill="none" stroke="#000000" d="M398.2652,-118.6536C398.2652,-118.6536 398.2652,-151.9047 398.2652,-151.9047"/>
<polygon fill="#000000" stroke="#000000" points="394.7653,-151.9047 398.2652,-161.9047 401.7653,-151.9048 394.7653,-151.9047"/>
</g>
<!-- JwtStrategy -->
<g id="node9" class="node">
<title>JwtStrategy</title>
<ellipse fill="#fdb462" stroke="#000000" cx="229" cy="-104" rx="56.7561" ry="18"/>
<text text-anchor="middle" x="229" y="-99.8" font-family="Times,serif" font-size="14.00" fill="#000000">JwtStrategy</text>
</g>
<!-- JwtStrategy&#45;&gt;AuthModule -->
<g id="edge8" class="edge">
<title>JwtStrategy&#45;&gt;AuthModule</title>
<path fill="none" stroke="#000000" d="M229,-122.0267C229,-142.7672 229,-174 229,-174 229,-174 364.1646,-174 364.1646,-174"/>
<polygon fill="#000000" stroke="#000000" points="364.1646,-177.5001 374.1646,-174 364.1645,-170.5001 364.1646,-177.5001"/>
</g>
<!-- LocalStrategy -->
<g id="node10" class="node">
<title>LocalStrategy</title>
<ellipse fill="#fdb462" stroke="#000000" cx="89" cy="-104" rx="65.4053" ry="18"/>
<text text-anchor="middle" x="89" y="-99.8" font-family="Times,serif" font-size="14.00" fill="#000000">LocalStrategy</text>
</g>
<!-- LocalStrategy&#45;&gt;AuthModule -->
<g id="edge9" class="edge">
<title>LocalStrategy&#45;&gt;AuthModule</title>
<path fill="none" stroke="#000000" d="M89,-122.1985C89,-146.3563 89,-186 89,-186 89,-186 364.3113,-186 364.3113,-186"/>
<polygon fill="#000000" stroke="#000000" points="364.3114,-189.5001 374.3113,-186 364.3113,-182.5001 364.3114,-189.5001"/>
</g>
<!-- EmployeeService -->
<g id="node11" class="node">
<title>EmployeeService</title>
<ellipse fill="#fdb462" stroke="#000000" cx="655" cy="-104" rx="79.2922" ry="18"/>
<text text-anchor="middle" x="655" y="-99.8" font-family="Times,serif" font-size="14.00" fill="#000000">EmployeeService</text>
</g>
<!-- EmployeeService&#45;&gt;EmployeeModule -->
<g id="edge10" class="edge">
<title>EmployeeService&#45;&gt;EmployeeModule</title>
<path fill="none" stroke="#000000" d="M586.0052,-113.0166C586.0052,-113.0166 586.0052,-151.7357 586.0052,-151.7357"/>
<polygon fill="#000000" stroke="#000000" points="582.5053,-151.7356 586.0052,-161.7357 589.5053,-151.7357 582.5053,-151.7356"/>
</g>
<!-- EmployeeRoleService -->
<g id="node12" class="node">
<title>EmployeeRoleService</title>
<ellipse fill="#fdb462" stroke="#000000" cx="871" cy="-104" rx="97.2702" ry="18"/>
<text text-anchor="middle" x="871" y="-99.8" font-family="Times,serif" font-size="14.00" fill="#000000">EmployeeRoleService</text>
</g>
<!-- EmployeeRoleService&#45;&gt;EmployeeRoleModule -->
<g id="edge11" class="edge">
<title>EmployeeRoleService&#45;&gt;EmployeeRoleModule</title>
<path fill="none" stroke="#000000" d="M829.9961,-120.4909C829.9961,-120.4909 829.9961,-151.9469 829.9961,-151.9469"/>
<polygon fill="#000000" stroke="#000000" points="826.4962,-151.9469 829.9961,-161.9469 833.4962,-151.9469 826.4962,-151.9469"/>
</g>
<!-- UsersService -->
<g id="node14" class="node">
<title>UsersService</title>
<ellipse fill="#fdb462" stroke="#000000" cx="1098" cy="-248" rx="61.9519" ry="18"/>
<text text-anchor="middle" x="1098" y="-243.8" font-family="Times,serif" font-size="14.00" fill="#000000">UsersService</text>
</g>
<!-- UsersService&#45;&gt;UsersModule -->
<g id="edge13" class="edge">
<title>UsersService&#45;&gt;UsersModule</title>
<path fill="none" stroke="#000000" d="M1044.0001,-239C1007.2439,-239 965.2368,-239 965.2368,-239 965.2368,-239 965.2368,-208.0225 965.2368,-208.0225"/>
<polygon fill="#000000" stroke="#000000" points="968.7369,-208.0225 965.2368,-198.0225 961.7369,-208.0226 968.7369,-208.0225"/>
</g>
</g>
</svg>
